<?xml version="1.0" encoding="UTF-8"?>
<svg id="Layer_2" data-name="Layer 2" xmlns="http://www.w3.org/2000/svg" viewBox="0 0 65 49">
  <defs>
    <style>
      .cls-1 {
        fill: #565656;
      }
    </style>
  </defs>
  <g id="Layer_1-2" data-name="Layer 1">
    <path class="cls-1" d="M32.49,48.99c-.22,0-.43-.03-.64-.1-.13-.04-.25-.09-.37-.15-.08-.04-.16-.09-.23-.14l-5.99-3.98c-1.41-.94-2.11-1.41-2.76-1.69-.57-.25-1.17-.43-1.79-.54-.69-.12-1.54-.12-3.23-.12H7.55c-2.09,0-3.35,0-4.53-.6-1.05-.53-1.88-1.37-2.42-2.41-.6-1.18-.6-2.44-.6-4.52V7.53c0-2.08,0-3.34.6-4.52C1.13,1.97,1.97,1.13,3.02.6c1.18-.6,2.44-.6,4.53-.6h3.37c7.89,0,11.84,0,15.19,1.7,2.51,1.28,4.63,3.2,6.13,5.57l.26.41.26-.41c1.49-2.37,3.61-4.29,6.13-5.57,3.35-1.7,7.31-1.7,15.19-1.7h3.37c2.09,0,3.35,0,4.53.6,1.05.53,1.88,1.37,2.42,2.41.6,1.18.6,2.44.6,4.52v27.21c0,2.08,0,3.34-.6,4.52-.53,1.04-1.37,1.88-2.42,2.41-1.18.6-2.44.6-4.53.6h-9.93c-1.69,0-2.54,0-3.23.12-.61.11-1.22.29-1.79.54-.65.28-1.35.75-2.76,1.69l-5.99,3.98c-.08.05-.15.1-.23.14-.12.07-.25.12-.38.16h-.02c-.2.07-.41.1-.62.1h0ZM54.07,4.3c-7.2,0-10.81,0-13.23,1.23-2.14,1.09-3.86,2.8-4.95,4.94-1.24,2.42-1.24,3-1.24,10.17v22.19l2.69-1.78c1.57-1.04,2.43-1.61,3.43-2.05.88-.38,1.81-.66,2.76-.83,1.07-.19,2.11-.19,3.99-.19h9.93c1.52,0,2.27-.01,2.56-.12.25-.12.43-.31.55-.54.12-.3.13-1.05.13-2.57V7.53c0-1.52-.01-2.26-.12-2.55-.12-.25-.31-.43-.54-.55-.3-.12-1.05-.13-2.57-.13h-3.37ZM7.55,4.3c-1.52,0-2.27.01-2.56.12-.25.12-.43.31-.55.54-.12.3-.13,1.05-.13,2.57v27.21c0,1.52.01,2.26.12,2.55v.03c.12.22.31.4.54.52.3.12,1.05.13,2.57.13h9.93c1.88,0,2.92,0,3.99.19.95.17,1.87.45,2.76.83.99.43,1.86,1.01,3.42,2.05l2.69,1.79v-22.19c0-7.16,0-7.75-1.24-10.17-1.09-2.14-2.81-3.85-4.95-4.94-2.42-1.23-6.04-1.23-13.23-1.23h-3.37Z"/>
  </g>
</svg>