<?xml version="1.0" encoding="UTF-8"?>
<svg id="Layer_2" data-name="Layer 2" xmlns="http://www.w3.org/2000/svg" viewBox="0 0 40.61 54.14">
  <defs>
    <style>
      .cls-1 {
        fill: #565656;
      }
    </style>
  </defs>
  <g id="Layer_1-2" data-name="Layer 1">
    <path class="cls-1" d="M20.3,54.14c11.21,0,20.3-6.77,20.3-18.61,0-5.08-1.69-13.54-8.46-20.3.85,5.08-4.23,6.77-4.23,6.77C30.46,13.54,23.69,1.69,13.54,0c1.21,6.77,1.69,13.54-6.77,20.3C2.54,23.69,0,29.54,0,35.53c0,11.84,9.09,18.61,20.3,18.61M20.3,50.76c-5.61,0-10.15-3.38-10.15-9.31,0-2.54.85-6.77,4.23-10.15-.42,2.54,2.54,4.23,2.54,4.23-1.27-4.23,1.69-11,6.77-11.84-.61,3.38-.85,6.77,3.38,10.15,2.11,1.69,3.38,4.62,3.38,7.61,0,5.92-4.54,9.31-10.15,9.31"/>
  </g>
</svg>