<?xml version="1.0" encoding="UTF-8"?>
<svg id="Layer_2" data-name="Layer 2" xmlns="http://www.w3.org/2000/svg" viewBox="0 0 65 41">
  <defs>
    <style>
      .cls-1 {
        fill: #565656;
        fill-rule: evenodd;
      }
    </style>
  </defs>
  <g id="Layer_1-2" data-name="Layer 1">
    <path class="cls-1" d="M8.42,41c-4.64,0-8.42-3.78-8.42-8.43V8.43C0,3.78,3.77,0,8.42,0h27.09c4.64,0,8.42,3.78,8.42,8.43v7.4L61.21,3.46c.41-.29.89-.45,1.39-.45.38,0,.76.09,1.1.27.8.41,1.3,1.23,1.3,2.14v30.16c0,.9-.5,1.72-1.3,2.14-.34.18-.72.27-1.1.27-.5,0-.98-.15-1.39-.45l-17.28-12.37v7.4c0,4.65-3.77,8.43-8.42,8.43H8.42ZM8.42,4.8c-2,0-3.62,1.63-3.62,3.63v24.13c0,2,1.62,3.63,3.62,3.63h27.09c2,0,3.62-1.63,3.62-3.63V8.43c0-2-1.62-3.63-3.62-3.63H8.42ZM45.65,20.5l14.56,10.42V10.08l-14.56,10.42Z"/>
  </g>
</svg>