<?xml version="1.0" encoding="UTF-8"?>
<svg id="Layer_2" data-name="Layer 2" xmlns="http://www.w3.org/2000/svg" viewBox="0 0 64 48">
  <defs>
    <style>
      .cls-1 {
        fill: #565656;
      }
    </style>
  </defs>
  <g id="Layer_1-2" data-name="Layer 1">
    <g>
      <path class="cls-1" d="M2.01,29c1.14,0,1.99-.81,1.99-1.82v-6.36c0-1.01-.85-1.82-1.99-1.82s-2.01.81-2.01,1.82v6.36c0,1.01.85,1.82,2.01,1.82Z"/>
      <path class="cls-1" d="M12.01,39c1.14,0,1.99-.83,1.99-1.88V10.88c0-1.05-.85-1.88-1.99-1.88s-2.01.83-2.01,1.88v26.24c0,1.05.85,1.88,2.01,1.88Z"/>
      <path class="cls-1" d="M21.99,48s0,0,0,0c1.16,0,2.01-.81,2.01-1.83V1.83c0-1.02-.85-1.83-2.01-1.83s-1.99.81-1.99,1.83v44.35c0,1.02.85,1.83,1.98,1.83,0,0,0,0,0,0Z"/>
      <path class="cls-1" d="M31.99,35.5c1.14,0,2.01-.79,2.01-1.79V14.29c0-1-.88-1.79-2.01-1.79s-1.99.79-1.99,1.79v19.42c0,1,.85,1.79,1.99,1.79Z"/>
      <path class="cls-1" d="M42.01,42c1.14,0,1.99-.8,1.99-1.77V7.77c0-.98-.85-1.77-1.99-1.77s-2.01.8-2.01,1.77v32.45c0,.98.88,1.77,2.01,1.77h0Z"/>
      <path class="cls-1" d="M52.01,31c1.14,0,1.99-.82,1.99-1.83v-10.34c0-1.01-.85-1.83-1.99-1.83s-2.01.82-2.01,1.83v10.34c0,1.01.85,1.83,2.01,1.83Z"/>
      <path class="cls-1" d="M62.01,28c1.14,0,1.99-.76,1.99-1.73v-4.54c0-.96-.85-1.73-1.99-1.73s-2.01.76-2.01,1.73v4.54c0,.96.85,1.73,2.01,1.73Z"/>
    </g>
  </g>
</svg>